<?xml version="1.0" encoding="UTF-8" standalone="no"?>
<svg width="512px" height="512px" viewBox="0 0 512 512" version="1.1" xmlns="http://www.w3.org/2000/svg" xmlns:xlink="http://www.w3.org/1999/xlink" xmlns:sketch="http://www.bohemiancoding.com/sketch/ns">
    <!-- Generator: Sketch 3.3.2 (12043) - http://www.bohemiancoding.com/sketch -->
    <title>LOGO PRETO</title>
    <desc>Created with Sketch.</desc>
    <defs>
        <path d="M0,242 L59.1208054,298.651007 L118.087248,242 L118.087248,359.778523 L92.9261745,359.778523 L92.9261745,301.120805 L59.1208054,333.536913 L25.1610738,300.966443 L25.1610738,359.778523 L0,359.778523 L0,242 Z M223.208054,242 L223.208054,359.778523 L152.510067,297.416107 L152.510067,359.778523 L127.348993,359.778523 L127.348993,242 L198.04698,307.604027 L198.04698,242 L223.208054,242 Z M282.328859,256.973154 C289.429566,256.973154 296.09281,258.310949 302.318792,260.986577 C308.544774,263.662206 313.973131,267.34114 318.604027,272.02349 C323.234922,276.70584 326.913857,282.159924 329.64094,288.385906 C332.368023,294.611888 333.731544,301.275132 333.731544,308.375839 C333.731544,315.476546 332.368023,322.13979 329.64094,328.365772 C326.913857,334.591754 323.234922,340.020111 318.604027,344.651007 C313.973131,349.281902 308.544774,352.960836 302.318792,355.687919 C296.09281,358.415002 289.429566,359.778523 282.328859,359.778523 C275.228152,359.778523 268.564908,358.415002 262.338926,355.687919 C256.112944,352.960836 250.65886,349.281902 245.97651,344.651007 C241.29416,340.020111 237.615226,334.591754 234.939597,328.365772 C232.263969,322.13979 230.926174,315.476546 230.926174,308.375839 L255.932886,308.375839 C255.932886,311.977647 256.62751,315.373586 258.016779,318.563758 C259.406047,321.753931 261.284104,324.532427 263.651007,326.899329 C266.017909,329.266231 268.822131,331.144288 272.063758,332.533557 C275.305385,333.922826 278.727051,334.61745 282.328859,334.61745 C285.930667,334.61745 289.326606,333.922826 292.516779,332.533557 C295.706951,331.144288 298.485447,329.266231 300.852349,326.899329 C303.219251,324.532427 305.097308,321.753931 306.486577,318.563758 C307.875846,315.373586 308.57047,311.977647 308.57047,308.375839 C308.57047,304.774031 307.875846,301.378092 306.486577,298.187919 C305.097308,294.997747 303.219251,292.193524 300.852349,289.775168 C298.485447,287.356811 295.706951,285.453027 292.516779,284.063758 C289.326606,282.67449 285.930667,281.979866 282.328859,281.979866 C276.771784,281.979866 271.549241,280.925066 266.661074,278.815436 C261.772906,276.705806 257.476529,273.85013 253.771812,270.248322 C250.067096,266.646514 247.134239,262.427317 244.973154,257.590604 C242.81207,252.753891 241.68009,247.557075 241.577181,242 L266.738255,242 C266.944073,246.21926 268.513408,249.769561 271.446309,252.651007 C274.379209,255.532453 278.00669,256.973154 282.328859,256.973154 L282.328859,256.973154 Z M366.610738,242 L366.610738,333.228188 L414,333.228188 L414,359.778523 L341.449664,359.778523 L341.449664,358.852349 L341.449664,333.228188 L341.449664,242 L366.610738,242 Z" id="path-1"></path>
    </defs>
    <g id="Page-1" stroke="none" stroke-width="1" fill="none" fill-rule="evenodd" sketch:type="MSPage">
        <g id="LOGO-PRETO" sketch:type="MSArtboardGroup">
            <g id="LOGO-COLOR" sketch:type="MSLayerGroup" transform="translate(49.000000, 76.000000)">
                <polygon id="Triangle-1-Copy-6" stroke="#000000" stroke-width="29" sketch:type="MSShapeGroup" points="207 0 332 199 82 199 "></polygon>
                <mask id="mask-2" sketch:name="Mask" fill="white">
                    <use xlink:href="#path-1"></use>
                </mask>
                <use id="Mask" fill="#000000" sketch:type="MSShapeGroup" xlink:href="#path-1"></use>
            </g>
        </g>
    </g>
</svg>