<?xml version="1.0" encoding="utf-8"?>
<!-- Generator: Adobe Illustrator 18.0.0, SVG Export Plug-In . SVG Version: 6.00 Build 0)  -->
<!DOCTYPE svg PUBLIC "-//W3C//DTD SVG 1.1//EN" "http://www.w3.org/Graphics/SVG/1.1/DTD/svg11.dtd">
<svg version="1.1" id="Layer_1" xmlns="http://www.w3.org/2000/svg" xmlns:xlink="http://www.w3.org/1999/xlink" x="0px" y="0px"
	 viewBox="0 0 115.4 114.9" enable-background="new 0 0 115.4 114.9" xml:space="preserve">
<g>
	<g>
		<polyline opacity="0.5" fill="#1489E0" points="46.1,23 46.1,46 23.1,46 		"/>
		<polyline opacity="0.5" fill="#E24913" points="23.1,23 46.1,23 46.1,46 		"/>
	</g>
	<g>
		<polyline opacity="0.5" fill="#1489E0" points="23,0 23,23 0,23 		"/>
		<polyline opacity="0.5" fill="#E24913" points="0,0 23,0 23,23 		"/>
	</g>
	<g>
		<polyline opacity="0.5" fill="#1489E0" points="69.2,0 69.2,23 46.2,23 		"/>
		<polyline opacity="0.5" fill="#E24913" points="46.2,0 69.2,0 69.2,23 		"/>
	</g>
	<g>
		<polyline opacity="0.5" fill="#1489E0" points="46.2,23 69.2,23 69.2,46 		"/>
		<polyline opacity="0.5" fill="#E24913" points="46.2,46 46.2,23 69.2,23 		"/>
	</g>
	<g>
		<polyline opacity="0.5" fill="#1489E0" points="46.1,69 23.1,69 23.1,46 		"/>
		<polyline opacity="0.5" fill="#E24913" points="46.1,46 46.1,69 23.1,69 		"/>
	</g>
	<g>
		<polyline opacity="0.5" fill="#1489E0" points="23,46 0,46 0,23 		"/>
		<polyline opacity="0.5" fill="#E24913" points="23,23 23,46 0,46 		"/>
	</g>
	<g>
		<polyline opacity="0.5" fill="#1489E0" points="46.2,69 46.2,46 69.2,46 		"/>
		<polyline opacity="0.5" fill="#E24913" points="69.2,69 46.2,69 46.2,46 		"/>
	</g>
	<g>
		<polyline opacity="0.5" fill="#1489E0" points="69,69 69,46 92,46 		"/>
		<polyline opacity="0.5" fill="#E24913" points="92,69 69,69 69,46 		"/>
	</g>
	<g>
		<polyline opacity="0.5" fill="#1489E0" points="69,46 69,23 92,23 		"/>
		<polyline opacity="0.5" fill="#E24913" points="92,46 69,46 69,23 		"/>
	</g>
	<g>
		<polyline opacity="0.5" fill="#1489E0" points="115.4,46 115.4,23 92.4,23 		"/>
		<polyline opacity="0.5" fill="#E24913" points="92.4,46 115.4,46 115.4,23 		"/>
	</g>
	<g>
		<polyline opacity="0.5" fill="#1489E0" points="115.4,0 92.4,0 92.4,23 		"/>
		<polyline opacity="0.5" fill="#E24913" points="115.4,23 115.4,0 92.4,0 		"/>
	</g>
	<g>
		<polyline opacity="0.5" fill="#1489E0" points="0,69.1 23,69.1 23,92.1 		"/>
		<polyline opacity="0.5" fill="#E24913" points="0,92.1 0,69.1 23,69.1 		"/>
	</g>
	<g>
		<polyline opacity="0.5" fill="#1489E0" points="92.4,69.1 92.4,92.1 115.4,92.1 		"/>
		<polyline opacity="0.5" fill="#E24913" points="115.4,69.1 92.4,69.1 92.4,92.1 		"/>
	</g>
	<g>
		<polyline opacity="0.5" fill="#1489E0" points="46.2,114.9 46.2,91.9 69.2,91.9 		"/>
		<polyline opacity="0.5" fill="#E24913" points="69.2,114.9 46.2,114.9 46.2,91.9 		"/>
	</g>
	<g>
		<polyline opacity="0.5" fill="#1489E0" points="92,114.9 69,114.9 69,91.9 		"/>
		<polyline opacity="0.5" fill="#E24913" points="92,91.9 92,114.9 69,114.9 		"/>
	</g>
	<g>
		<polyline opacity="0.5" fill="#1489E0" points="46.2,69.1 69.2,69.1 69.2,92.1 		"/>
		<polyline opacity="0.5" fill="#E24913" points="46.2,92.1 46.2,69.1 69.2,69.1 		"/>
	</g>
	<g>
		<polyline opacity="0.5" fill="#1489E0" points="46.1,69.1 46.1,92.1 23.1,92.1 		"/>
		<polyline opacity="0.5" fill="#E24913" points="23.1,69.1 46.1,69.1 46.1,92.1 		"/>
	</g>
	<g>
		<polyline opacity="0.5" fill="#1489E0" points="23,91.9 23,114.9 0,114.9 		"/>
		<polyline opacity="0.5" fill="#E24913" points="0,91.9 23,91.9 23,114.9 		"/>
	</g>
</g>
</svg>
